<?xml version="1.0" encoding="utf-8"?>
<!-- Generator: Adobe Illustrator 21.1.0, SVG Export Plug-In . SVG Version: 6.00 Build 0)  -->
<svg version="1.1" id="Слой_1" xmlns="http://www.w3.org/2000/svg" xmlns:xlink="http://www.w3.org/1999/xlink" x="0px" y="0px"
	 viewBox="0 0 620.9 707" style="enable-background:new 0 0 620.9 707;" xml:space="preserve">
<style type="text/css">
	.st0{fill:none;stroke:#FFFFFF;stroke-width:10;stroke-miterlimit:10;}
	.st1{fill:#FFFFFF;}
	.st2{fill:#FFFFFF;stroke:#FFFFFF;stroke-miterlimit:10;}
	.st3{fill:none;stroke:#FFFFFF;stroke-miterlimit:10;}
</style>
<g>
	<line class="st0" x1="313.7" y1="14" x2="9.1" y2="189.3"/>
	<line class="st1" x1="313.7" y1="14" x2="9.1" y2="189.3"/>
</g>
<g>
	<line class="st1" x1="612.3" y1="188.9" x2="311.1" y2="15"/>
	<line class="st0" x1="612.3" y1="188.9" x2="311.1" y2="15"/>
</g>
<g>
	<path class="st1" d="M610.7,525.4c0-113.4,0-227.4,0-340.3"/>
	<path class="st0" d="M610.7,525.4c0-113.4,0-227.4,0-340.3"/>
</g>
<g>
	<path class="st1" d="M11.7,523.4c0-113.4,0-225.4,0-338.3"/>
	<path class="st0" d="M11.7,523.4c0-113.4,0-225.4,0-338.3"/>
</g>
<g>
	<line class="st1" x1="9.2" y1="518.7" x2="310.7" y2="692.8"/>
	<line class="st0" x1="9.2" y1="518.7" x2="310.7" y2="692.8"/>
</g>
<g>
	<path class="st1" d="M614.4,519.9c-4.6,2.5-8.8,5.7-13.2,8.6c-4.5,3-9.3,5.4-13.9,8.1c-9.8,5.6-19.6,11.3-29.4,16.9
		c-19.7,11.3-39.3,22.7-58.9,34c-39.4,22.8-78.9,45.7-118.4,68.4c-22.2,12.7-44.5,25.4-66.9,38"/>
	<path class="st0" d="M614.4,519.9c-4.6,2.5-8.8,5.7-13.2,8.6c-4.5,3-9.3,5.4-13.9,8.1c-9.8,5.6-19.6,11.3-29.4,16.9
		c-19.7,11.3-39.3,22.7-58.9,34c-39.4,22.8-78.9,45.7-118.4,68.4c-22.2,12.7-44.5,25.4-66.9,38"/>
</g>
<g>
	<path class="st1" d="M613.7,521c-39.4,23-79.2,45.5-118.9,68c-39.2,22.3-78.2,44.8-116.8,67.9c-21.8,13.1-44,25.7-66.2,38.2"/>
	<path class="st0" d="M613.7,521c-39.4,23-79.2,45.5-118.9,68c-39.2,22.3-78.2,44.8-116.8,67.9c-21.8,13.1-44,25.7-66.2,38.2"/>
</g>
<g>
	<path class="st1" d="M313,694.1"/>
	<g>
		<path class="st1" d="M313,700.1c7.7,0,7.7-12,0-12C305.2,688.1,305.2,700.1,313,700.1L313,700.1z"/>
	</g>
</g>
<g>
	<path class="st1" d="M610.7,521"/>
	<g>
		<path class="st1" d="M610.7,527c7.7,0,7.7-12,0-12C603,515,603,527,610.7,527L610.7,527z"/>
	</g>
</g>
<g>
	<path class="st1" d="M610.7,521.2"/>
	<g>
		<path class="st1" d="M610.7,527.2c7.7,0,7.7-12,0-12C603,515.2,603,527.2,610.7,527.2L610.7,527.2z"/>
	</g>
</g>
<g>
	<path class="st1" d="M610.7,522"/>
	<g>
		<path class="st1" d="M610.7,528c7.7,0,7.7-12,0-12C603,516,603,528,610.7,528L610.7,528z"/>
	</g>
</g>
<g>
	<path class="st1" d="M611.3,522c0.1,0.1,0.2,0.1,0.3,0.2C611.4,522.2,611.3,522.1,611.3,522"/>
	<g>
		<path class="st1" d="M608.2,527.2c0.1,0.1,0.2,0.1,0.3,0.2c1.5-3.7,3.1-7.3,4.6-11c0,0-0.1,0-0.1,0c0.9,0.5,1.8,1,2.6,1.5
			c0,0-0.1-0.1-0.1-0.1c0.3,0.4,0.6,0.8,0.9,1.2c0,0,0-0.1-0.1-0.1c-0.4-0.7-0.9-1.3-1.5-1.7c-0.6-0.5-1.3-0.9-2-1.1
			c-1.4-0.4-3.3-0.2-4.6,0.6c-1.3,0.8-2.4,2.1-2.8,3.6c-0.1,0.5-0.1,1.1-0.2,1.6c0,1.1,0.3,2.1,0.8,3c0.2,0.5,0.7,1.1,1.1,1.4
			c0.8,0.8,1.7,1.2,2.8,1.6c0.8,0.3,1.6,0.3,2.4,0.1c0.8,0,1.5-0.3,2.2-0.7c0.4-0.3,0.8-0.6,1.2-0.9c0.6-0.5,1-1.2,1.2-1.9
			c0.5-1.2,0.7-2.6,0.3-3.9c-0.2-0.5-0.4-1-0.6-1.4c-0.5-0.9-1.3-1.6-2.2-2.2c-0.1-0.1-0.2-0.1-0.3-0.2c-0.7-0.4-1.4-0.7-2.2-0.7
			c-0.8-0.2-1.6-0.1-2.4,0.1c-1.4,0.4-2.9,1.5-3.6,2.8c-0.7,1.4-1.1,3.1-0.6,4.6c0.2,0.5,0.4,1,0.6,1.4
			C606.6,526,607.3,526.7,608.2,527.2L608.2,527.2z"/>
	</g>
</g>
<g>
	<path class="st1" d="M611.8,520.1c-0.5-0.3-1-0.4-1.6-0.3c0,0-0.1,0-0.1,0.1c0,0,0,0.1-0.1,0.1c0,0.3-0.1,0.5-0.1,0.8
		c-0.2-0.3,0-0.8,0.4-0.9c-0.1,0-0.3,0.1-0.3,0.2c0-0.1,0-0.1-0.1-0.2c-0.2,0.1-0.3,0.3-0.4,0.5c-0.1,0.3-0.1,0.7,0,1.1
		s0.3,0.7,0.6,1c0.3,0.3,0.6,0.7,1,0.7c0.4,0.1,0.8-0.1,1.1-0.4c0.3-0.3,0.4-0.8,0.3-1.2c0-0.5-0.3-1-0.7-1.3"/>
	<g>
		<path class="st1" d="M614.9,515c-1.8-1-4-1.5-6-0.9c-1.4,0.4-2.6,1.1-3.4,2.2c-0.7,0.9-1.1,1.9-1.3,3c3.9,0,7.7,0,11.6,0
			c0,0,0-0.1-0.1-0.1c0.1,0.5,0.1,1.1,0.2,1.6c0-0.1,0-0.1,0-0.2c-0.1,0.5-0.1,1.1-0.2,1.6c0-0.1,0-0.2,0.1-0.3
			c-0.2,0.5-0.4,1-0.6,1.4c0,0,0.1-0.1,0.1-0.1c-0.3,0.4-0.6,0.8-0.9,1.2c0,0,0.1-0.1,0.1-0.1c-0.4,0.3-0.8,0.6-1.2,0.9
			c0,0,0.1-0.1,0.1-0.1c2.2-1.2,3.6-4.3,2.8-6.8c-0.8-2.5-3.1-4.4-5.8-4.4c-2.8,0-5.3,1.9-6,4.6c3.9,0,7.7,0,11.6,0
			c0-0.1,0-0.1-0.1-0.2c-0.6-2-2.2-3.6-4.2-4.2c-2.2-0.6-4.2,0.1-5.8,1.5c-2.6,2.3-2.8,6.4-1.1,9.3c1.5,2.4,3.8,4.3,6.8,4.3
			c3.3,0,6.1-2.4,6.9-5.6c0.3-1.3,0.3-2.8-0.1-4.2c-0.6-1.9-1.8-3.2-3.3-4.3c-1.2-0.9-3.3-1-4.6-0.6c-1.4,0.4-2.9,1.5-3.6,2.8
			c-0.7,1.4-1.1,3.1-0.6,4.6c0.2,0.5,0.4,1,0.6,1.4c0.5,0.9,1.3,1.6,2.2,2.2c0.1,0,0.1,0.1,0.2,0.1c-0.4-0.3-0.8-0.6-1.2-0.9
			c0.1,0.1,0.2,0.2,0.3,0.3c-0.3-0.4-0.6-0.8-0.9-1.2c0.1,0.1,0.1,0.2,0.2,0.3c-0.2-0.5-0.4-1-0.6-1.4c0,0.1,0.1,0.2,0.1,0.4
			c-0.1-0.5-0.1-1.1-0.2-1.6c0,0.2,0,0.4,0,0.6c0.1-0.5,0.1-1.1,0.2-1.6c0,0.1-0.1,0.3-0.1,0.4c0.2-0.5,0.4-1,0.6-1.4
			c-0.1,0.1-0.1,0.2-0.2,0.4c0.3-0.4,0.6-0.8,0.9-1.2c-0.1,0.1-0.2,0.2-0.3,0.2c0.4-0.3,0.8-0.6,1.2-0.9c-0.1,0-0.1,0.1-0.2,0.1
			c0.5-0.2,1-0.4,1.4-0.6c-0.1,0.1-0.2,0.1-0.3,0.1c0.5-0.1,1.1-0.1,1.6-0.2c-0.1,0-0.2,0-0.4,0c0.5,0.1,1.1,0.1,1.6,0.2
			c-0.1,0-0.1,0-0.2-0.1c0.5,0.2,1,0.4,1.4,0.6c-0.1-0.1-0.2-0.1-0.4-0.2c0.4,0.3,0.8,0.6,1.2,0.9c-0.2-0.1-0.3-0.3-0.4-0.5
			c0.3,0.4,0.6,0.8,0.9,1.2c-0.2-0.2-0.3-0.5-0.5-0.8c0.2,0.5,0.4,1,0.6,1.4c-0.1-0.2-0.1-0.4-0.2-0.6c0.1,0.5,0.1,1.1,0.2,1.6
			c0-0.2,0-0.3,0-0.4c-0.1,0.5-0.1,1.1-0.2,1.6c0-0.1,0-0.1,0.1-0.2c-0.2,0.5-0.4,1-0.6,1.4c0.1-0.1,0.1-0.2,0.2-0.3
			c-0.3,0.4-0.6,0.8-0.9,1.2c0.1,0,0.1-0.1,0.2-0.1c-3.3-0.9-6.7-1.8-10-2.6c0,0.1,0,0.1,0.1,0.2c0.7,2.4,3.2,4.5,5.8,4.4
			c2.6-0.1,5.1-1.8,5.8-4.4c0,0,0-0.1,0-0.1c-0.9,1.2-1.8,2.4-2.8,3.6c0,0,0.1-0.1,0.1-0.1c-1,0.3-2,0.5-3,0.8c0,0,0.1,0,0.1,0
			c-1-3.7-2-7.5-3-11.2c-2.6,1.4-4.1,4.8-3.1,7.7c0.4,1.3,1.1,2.3,2.2,3.1c1,0.8,2.3,1.3,3.6,1.3c1.1,0,2.1-0.3,3-0.8
			c1.2-0.6,2.5-2.3,2.8-3.6c0-0.3,0.1-0.6,0.2-0.9c-0.9,1.2-1.8,2.4-2.8,3.6c0,0,0.1,0,0.1-0.1c-0.5,0.2-1,0.4-1.4,0.6
			c0.1,0,0.1,0,0.2,0c-0.5,0.1-1.1,0.1-1.6,0.2c0.1,0,0.3,0,0.4,0c-0.5-0.1-1.1-0.1-1.6-0.2c0.2,0,0.4,0.1,0.6,0.1
			c-0.5-0.2-1-0.4-1.4-0.6c0.1,0,0.2,0.1,0.4,0.2c1.4,0.8,3.1,1,4.6,0.6c1.4-0.4,2.9-1.5,3.6-2.8C618.5,520.3,617.8,516.6,614.9,515
			L614.9,515z"/>
	</g>
</g>
<g>
	<path class="st1" d="M12.2,519.7"/>
	<g>
		<path class="st1" d="M12.2,525.7c7.7,0,7.7-12,0-12C4.5,513.7,4.5,525.7,12.2,525.7L12.2,525.7z"/>
	</g>
</g>
<g>
	<path class="st1" d="M12,519.9"/>
	<g>
		<path class="st1" d="M12,525.9c7.7,0,7.7-12,0-12C4.2,513.9,4.2,525.9,12,525.9L12,525.9z"/>
	</g>
</g>
<g>
	<path class="st1" d="M11.6,188.6"/>
	<g>
		<path class="st1" d="M11.6,194.6c7.7,0,7.7-12,0-12C3.8,182.6,3.8,194.6,11.6,194.6L11.6,194.6z"/>
	</g>
</g>
<g>
	<path class="st1" d="M311.7,14.6"/>
	<g>
		<path class="st1" d="M311.7,20.6c7.7,0,7.7-12,0-12C304,8.6,304,20.6,311.7,20.6L311.7,20.6z"/>
	</g>
</g>
<g>
	<path class="st1" d="M610.6,188.3"/>
	<g>
		<path class="st1" d="M610.6,194.3c7.7,0,7.7-12,0-12C602.8,182.3,602.8,194.3,610.6,194.3L610.6,194.3z"/>
	</g>
</g>
<g>
	<g>
		<path class="st2" d="M106.8,361.1v44.6l0.1,25.6c0,16,0.1,27.7,0.4,35.1c13.7,1.3,28.4,2,44,2c10.5,0,19.3-0.6,26.4-1.8
			c4.6-0.7,9.5-2.3,14.6-4.7c2.3-10.6,4.7-24,7.2-39.9h9.3c-2.5,26.6-3.8,44.3-3.8,53.2l0.3,8.2c-10.8,1.2-21.3,1.8-31.7,1.8
			l-22-0.5c-24.3-0.8-42.2-1.3-53.6-1.3c-11,0-25.5,0.4-43.7,1.3v-11.4h4.4c8.1,0,13.3-1,15.4-3.1c2.1-2.1,3.5-6.9,4.2-14.5
			s1.1-24.4,1.1-50.5v-99.7c0-16.3-0.3-29.7-0.9-40.1c-0.6-10.4-1.3-16.6-2-18.6s-1.7-3.5-3-4.6c-1.3-1.1-5.3-2.1-12.1-2.9
			l-10.8-1.5v-11.4h15.2l14.9,0.6c8.3,0.4,14.6,0.6,19,0.6l53.9-1.1l25.6-0.2c8.7-0.1,17.5,0.3,26.4,1.3
			c-3.6,14.4-5.5,33.1-5.9,56.1h-9.5c0-13.3-0.5-24.4-1.5-33.2c-11-5.3-24.6-8-40.7-8c-12.8,0-26.3,0.7-40.3,2.2
			c0.1,11.4,0,22.7-0.3,34.1l-0.3,27.9v36.8c9.3,0.8,17.5,1.3,24.6,1.3c22.3,0,34.9-1,37.8-3c2.9-2,4.4-8.2,4.4-18.6v-11.8h9.5
			c-0.7,18.3-1,32.9-1,43.8c0,11.5,0.3,25.1,1,40.7h-9.5v-10.5c0-11.6-1.8-18.7-5.3-21.3c-3.5-2.6-15.9-3.9-37.1-3.9
			C123.4,359.9,115.2,360.3,106.8,361.1z"/>
	</g>
</g>
<g>
	<g>
		<path class="st2" d="M372.6,266.2l-29,112c-10.9,42.1-19.8,78.8-26.8,110.2h-3.9c-2.4-10.8-9.3-38.4-20.7-82.9l-35-134.4v140
			c0,32.6,0.7,51.1,2.1,55.5c1.4,4.4,5.8,6.6,13.1,6.6h3.6v11.4c-9.1-0.8-16.4-1.3-22.1-1.3c-4.1,0-12.3,0.4-24.6,1.3v-11.4h6.3
			c4.3,0,7.2-1.1,8.6-3.4c1.4-2.3,2.3-6.5,2.6-12.5c0.8-16.9,1.3-35.1,1.3-54.7V300.3c0-24.8-0.3-41.1-0.9-49.1
			c-0.3-4.1-1.2-7.2-2.9-9.4c-1.7-2.2-5-3.3-9.9-3.3h-5.2v-11.4c11.3,0.8,18.5,1.3,21.4,1.3c3.7,0,9-0.4,15.8-1.3
			c7.9,32.5,17,68.3,27.3,107.5l25.7,98l23.7-90.8c8.3-31.8,17.9-70,28.5-114.7c8.1,0.8,13.9,1.3,17.2,1.3c3.8,0,10.8-0.4,20.8-1.3
			v11.4h-6.4c-5.8,0-9.3,1.8-10.6,5.5c-1.3,3.7-1.9,16.9-1.9,39.8v132.4c0,29.5,0.7,46.4,2,50.7c1.3,4.3,5.1,6.5,11.2,6.5h5.6v11.4
			c-9.1-0.8-17.7-1.3-26-1.3c-9.1,0-18.7,0.4-28.6,1.3v-11.4h6.4c5.1,0,8.3-2.1,9.3-6.2s1.6-22.1,1.6-53.7V266.2z"/>
	</g>
</g>
<g>
	<g>
		<path class="st2" d="M508.8,243.9c-0.8,18.2-1.2,37.4-1.2,57.5v103.7c0,38.6,0.6,59.8,1.8,63.8c1.2,3.9,5.4,5.9,12.8,5.9h8.4v11.5
			c-13.2-0.8-24.4-1.3-33.6-1.3c-9.3,0-20.4,0.4-33.4,1.3v-11.5h9.4c4.9,0,8.1-1.1,9.6-3.2c1.5-2.1,2.4-6.3,2.8-12.5
			c0.7-14.2,1.1-32.5,1.1-55V300.3c0-20.5-0.3-39.3-0.8-56.4h-11.4c-18.4,0-28.5,0.7-30.4,2.1c-1.9,1.4-3.1,6.8-3.7,16.3l-1.6,24.4
			h-7.1l0.2-21.7c0-8.7-0.4-21.3-1.3-37.7c40.3,0.9,64,1.3,71.1,1.3l61.9-1.3c-1.4,20.5-2.2,40.3-2.5,59.3h-7.1l-1.1-23.8
			c-0.4-8.2-1.1-13.1-1.9-14.6c-0.8-1.5-2.7-2.5-5.5-2.8c-8.2-1-17.5-1.5-28-1.5H508.8z"/>
	</g>
</g>
<g>
	<g>
		<path class="st2" d="M122,539.2v7.2l0,4.1c0,2.6,0,4.5,0.1,5.7c2.9,0.2,5.9,0.3,9.2,0.3c2.2,0,4-0.1,5.5-0.3c1-0.1,2-0.4,3.1-0.8
			c0.5-1.7,1-3.9,1.5-6.4h1.9c-0.5,4.3-0.8,7.2-0.8,8.6l0.1,1.3c-2.2,0.2-4.5,0.3-6.6,0.3l-4.6-0.1c-5.1-0.1-8.8-0.2-11.2-0.2
			c-2.3,0-5.3,0.1-9.1,0.2v-1.8h0.9c1.7,0,2.8-0.2,3.2-0.5s0.7-1.1,0.9-2.3s0.2-3.9,0.2-8.1v-16.1c0-2.6-0.1-4.8-0.2-6.5
			s-0.3-2.7-0.4-3s-0.4-0.6-0.6-0.7s-1.1-0.3-2.5-0.5l-2.3-0.2v-1.8h3.2l3.1,0.1c1.7,0.1,3.1,0.1,4,0.1l11.3-0.2l5.3,0
			c1.8,0,3.7,0,5.5,0.2c-0.7,2.3-1.2,5.3-1.2,9.1h-2c0-2.1-0.1-3.9-0.3-5.4c-2.3-0.9-5.1-1.3-8.5-1.3c-2.7,0-5.5,0.1-8.4,0.4
			c0,1.8,0,3.7-0.1,5.5l-0.1,4.5v5.9c1.9,0.1,3.6,0.2,5.1,0.2c4.6,0,7.3-0.2,7.9-0.5s0.9-1.3,0.9-3v-1.9h2c-0.1,2.9-0.2,5.3-0.2,7.1
			c0,1.9,0.1,4,0.2,6.6h-2v-1.7c0-1.9-0.4-3-1.1-3.4c-0.7-0.4-3.3-0.6-7.7-0.6C125.5,539,123.8,539.1,122,539.2z"/>
		<path class="st2" d="M163.8,536.1l20,18.6l1.8,1.7c0.4,0.4,0.7,0.6,1.1,0.7s1,0.2,1.9,0.2v1.8c-1.6-0.1-3-0.2-4.2-0.2
			c-1.3,0-2.7,0.1-4.2,0.2L160.1,540c-0.7-0.6-1.1-1-1.3-1c-0.4,0-0.6,0.4-0.6,1.1v8.9c0,4.4,0.1,6.7,0.3,7.1
			c0.3,0.7,1.4,1.1,3.2,1.1h2.2v1.8c-3.2-0.1-6-0.2-8.5-0.2c-2.6,0-5.4,0.1-8.3,0.2v-1.8h2.4c1.6,0,2.5-0.3,2.8-0.9
			c0.3-0.6,0.5-3.1,0.5-7.5v-19.6c0-5.4-0.2-8.4-0.5-9.1s-1.3-1-2.8-1H147v-1.8c3.6,0.1,6.2,0.2,7.8,0.2c1.2,0,4.2-0.1,9-0.2v1.8
			l-2.3,0.1c-1.3,0.1-2.2,0.2-2.5,0.5c-0.4,0.3-0.6,0.9-0.7,1.8c-0.1,0.9-0.1,3.5-0.1,7.8v7.9h0.4c1.6-1.3,3-2.5,4.1-3.6
			s3-3,5.7-5.7l8.3-8.6v-2.1c2.1,0.1,3.9,0.2,5.3,0.2c1.5,0,3.1-0.1,4.9-0.2v1.8h-1.6c-1.4,0-2.6,0.3-3.6,0.8
			c-1,0.5-3.2,2.4-6.8,5.7L163.8,536.1z"/>
		<path class="st2" d="M190.3,538.3c0-6.4,2.1-11.6,6.2-15.5s9.7-5.9,16.6-5.9c6.8,0,12.1,1.8,15.9,5.5c3.8,3.6,5.8,8.5,5.8,14.5
			c0,6.5-2.2,11.9-6.7,16.3s-10.1,6.6-16.9,6.6c-4.2,0-7.9-0.9-11-2.6s-5.5-4.2-7.3-7.5C191.2,546.3,190.3,542.6,190.3,538.3z
			 M196.2,535.9c0,4.4,0.8,8.3,2.3,11.5c1.5,3.3,3.5,5.7,6.1,7.4c2.5,1.6,5.4,2.4,8.7,2.4c3,0,5.7-0.7,7.9-2.1s4.1-3.5,5.4-6.2
			s2-6.1,2-10c0-4.1-0.7-7.7-2.2-10.6c-1.4-2.9-3.4-5.2-5.9-6.6c-2.5-1.5-5.5-2.2-8.9-2.2c-3.1,0-5.8,0.7-8.1,2
			c-2.3,1.3-4,3.2-5.3,5.8C196.9,529.7,196.2,532.6,196.2,535.9z"/>
		<path class="st2" d="M280.5,523.8l-8.7,18.1c-3.3,6.8-5.9,12.7-8,17.8h-1.2c-0.7-1.7-2.8-6.2-6.2-13.4l-10.5-21.7v22.7
			c0,5.3,0.2,8.3,0.6,9s1.7,1.1,3.9,1.1h1.1v1.8c-2.7-0.1-4.9-0.2-6.6-0.2c-1.2,0-3.7,0.1-7.4,0.2v-1.8h1.9c1.3,0,2.1-0.2,2.6-0.6
			s0.7-1,0.8-2c0.3-2.7,0.4-5.7,0.4-8.8v-16.6c0-4-0.1-6.7-0.3-7.9c-0.1-0.7-0.4-1.2-0.9-1.5s-1.5-0.5-3-0.5h-1.6v-1.8
			c3.4,0.1,5.5,0.2,6.4,0.2c1.1,0,2.7-0.1,4.7-0.2c2.4,5.3,5.1,11.1,8.2,17.4l7.7,15.9l7.1-14.7c2.5-5.1,5.4-11.3,8.6-18.6
			c2.4,0.1,4.2,0.2,5.2,0.2c1.2,0,3.2-0.1,6.2-0.2v1.8h-1.9c-1.7,0-2.8,0.3-3.2,0.9c-0.4,0.6-0.6,2.7-0.6,6.4v21.4
			c0,4.8,0.2,7.5,0.6,8.2s1.5,1.1,3.4,1.1h1.7v1.8c-2.7-0.1-5.3-0.2-7.8-0.2c-2.7,0-5.6,0.1-8.6,0.2v-1.8h1.9c1.5,0,2.5-0.3,2.8-1
			s0.5-3.6,0.5-8.7V523.8z"/>
		<path class="st2" d="M306.2,539.2v7.2l0,4.1c0,2.6,0,4.5,0.1,5.7c2.9,0.2,5.9,0.3,9.2,0.3c2.2,0,4-0.1,5.5-0.3
			c1-0.1,2-0.4,3.1-0.8c0.5-1.7,1-3.9,1.5-6.4h1.9c-0.5,4.3-0.8,7.2-0.8,8.6l0.1,1.3c-2.2,0.2-4.5,0.3-6.6,0.3l-4.6-0.1
			c-5.1-0.1-8.8-0.2-11.2-0.2c-2.3,0-5.3,0.1-9.1,0.2v-1.8h0.9c1.7,0,2.8-0.2,3.2-0.5s0.7-1.1,0.9-2.3s0.2-3.9,0.2-8.1v-16.1
			c0-2.6-0.1-4.8-0.2-6.5s-0.3-2.7-0.4-3s-0.4-0.6-0.6-0.7s-1.1-0.3-2.5-0.5l-2.3-0.2v-1.8h3.2l3.1,0.1c1.7,0.1,3.1,0.1,4,0.1
			l11.3-0.2l5.3,0c1.8,0,3.7,0,5.5,0.2c-0.7,2.3-1.2,5.3-1.2,9.1h-2c0-2.1-0.1-3.9-0.3-5.4c-2.3-0.9-5.1-1.3-8.5-1.3
			c-2.7,0-5.5,0.1-8.4,0.4c0,1.8,0,3.7-0.1,5.5l-0.1,4.5v5.9c1.9,0.1,3.6,0.2,5.1,0.2c4.6,0,7.3-0.2,7.9-0.5s0.9-1.3,0.9-3v-1.9h2
			c-0.1,2.9-0.2,5.3-0.2,7.1c0,1.9,0.1,4,0.2,6.6h-2v-1.7c0-1.9-0.4-3-1.1-3.4c-0.7-0.4-3.3-0.6-7.7-0.6
			C309.6,539,307.9,539.1,306.2,539.2z"/>
		<path class="st2" d="M333.7,561.2c-1.2,2.9-2.1,5.6-2.8,8.3h-2.2c0.7-2.9,1.2-5.7,1.6-8.4l0.4-2.9c3.4-3.3,5.8-6.9,7.2-10.9
			s2-10.8,2-20.5c0-3-0.1-5-0.3-5.9s-1.4-1.5-3.5-1.5h-2.1v-1.8c4.8,0.2,10.9,0.4,18.3,0.4l17.8-0.3l2.3,0v1.8h-2.2
			c-2.1,0-3.3,0.4-3.5,1.3s-0.3,4-0.3,9.4v16.6c0,5.4,0.1,8.5,0.2,9.4c0.2,0.9,1.3,1.3,3.5,1.3h3.5c-0.8,4.1-1.3,8.1-1.3,12.1h-2.2
			c-0.1-2.6-0.3-5.4-0.7-8.3c-1.3-0.8-2.7-1.3-4.4-1.7c-1.6-0.3-6-0.5-13.2-0.5c-6.3,0-10.5,0.1-12.4,0.4S335.6,560.2,333.7,561.2z
			 M360.5,520.3c-1.8-0.2-4.5-0.2-8.4-0.2c-3.5,0-6.7,0.1-9.7,0.2c0,11.3-0.4,19.2-1.3,23.7c-0.9,4.5-2.8,8.5-5.8,12.1
			c8.6,0.2,14.3,0.3,17.2,0.3c3.3,0,5.9-0.1,8-0.3c0.2-4.7,0.4-7.9,0.4-9.5V530C360.9,528.4,360.8,525.1,360.5,520.3z"/>
		<path class="st2" d="M396.1,520.1c-0.2,2.9-0.3,6-0.3,9.3v16.7c0,6.2,0.2,9.6,0.5,10.3c0.3,0.6,1.4,1,3.3,1h2.2v1.8
			c-3.5-0.1-6.4-0.2-8.8-0.2c-2.4,0-5.3,0.1-8.7,0.2v-1.8h2.5c1.3,0,2.1-0.2,2.5-0.5c0.4-0.3,0.6-1,0.7-2c0.2-2.3,0.3-5.2,0.3-8.8
			v-16.7c0-3.3-0.1-6.3-0.2-9.1h-3c-4.8,0-7.5,0.1-8,0.3c-0.5,0.2-0.8,1.1-1,2.6l-0.4,3.9h-1.8l0.1-3.5c0-1.4-0.1-3.4-0.4-6.1
			c10.5,0.1,16.7,0.2,18.6,0.2l16.2-0.2c-0.4,3.3-0.6,6.5-0.6,9.6h-1.8l-0.3-3.8c-0.1-1.3-0.3-2.1-0.5-2.4c-0.2-0.2-0.7-0.4-1.4-0.5
			c-2.1-0.2-4.6-0.2-7.3-0.2H396.1z"/>
		<path class="st2" d="M424.7,539.2v7.2l0,4.1c0,2.6,0,4.5,0.1,5.7c2.9,0.2,5.9,0.3,9.2,0.3c2.2,0,4-0.1,5.5-0.3
			c1-0.1,2-0.4,3.1-0.8c0.5-1.7,1-3.9,1.5-6.4h1.9c-0.5,4.3-0.8,7.2-0.8,8.6l0.1,1.3c-2.2,0.2-4.5,0.3-6.6,0.3l-4.6-0.1
			c-5.1-0.1-8.8-0.2-11.2-0.2c-2.3,0-5.3,0.1-9.1,0.2v-1.8h0.9c1.7,0,2.8-0.2,3.2-0.5s0.7-1.1,0.9-2.3s0.2-3.9,0.2-8.1v-16.1
			c0-2.6-0.1-4.8-0.2-6.5s-0.3-2.7-0.4-3s-0.4-0.6-0.6-0.7s-1.1-0.3-2.5-0.5l-2.3-0.2v-1.8h3.2l3.1,0.1c1.7,0.1,3.1,0.1,4,0.1
			l11.3-0.2l5.3,0c1.8,0,3.7,0,5.5,0.2c-0.7,2.3-1.2,5.3-1.2,9.1h-2c0-2.1-0.1-3.9-0.3-5.4c-2.3-0.9-5.1-1.3-8.5-1.3
			c-2.7,0-5.5,0.1-8.4,0.4c0,1.8,0,3.7-0.1,5.5l-0.1,4.5v5.9c1.9,0.1,3.6,0.2,5.1,0.2c4.6,0,7.3-0.2,7.9-0.5s0.9-1.3,0.9-3v-1.9h2
			c-0.1,2.9-0.2,5.3-0.2,7.1c0,1.9,0.1,4,0.2,6.6h-2v-1.7c0-1.9-0.4-3-1.1-3.4c-0.7-0.4-3.3-0.6-7.7-0.6
			C428.1,539,426.4,539.1,424.7,539.2z"/>
		<path class="st2" d="M485.7,528l-0.2-5.2c-1.7-1.2-3.6-2-5.5-2.6s-3.9-0.8-6-0.8c-5.3,0-9.5,1.6-12.7,4.8s-4.8,7.5-4.8,12.9
			c0,3.8,0.8,7.1,2.4,10.1s3.9,5.3,6.9,7s6.1,2.6,9.4,2.6c2.6,0,5.2-0.3,7.8-0.9c1.9-0.4,3.8-1.4,5.8-2.8l0.6,0.6
			c-0.4,0.9-0.8,1.8-1.1,2.7c-2.3,1.1-4.6,2-6.9,2.6s-4.6,0.9-7,0.9c-4.8,0-9-0.9-12.7-2.8s-6.4-4.4-8.4-7.7c-2-3.3-2.9-7-2.9-11.1
			s1-7.8,3-11.1s4.8-5.8,8.4-7.6s8-2.7,13.3-2.7c2.8,0,6,0.4,9.7,1.3c1.8,0.4,3.3,0.8,4.5,1c-0.9,2.1-1.4,5-1.5,8.8H485.7z"/>
		<path class="st2" d="M512.1,520.1c-0.2,2.9-0.3,6-0.3,9.3v16.7c0,6.2,0.2,9.6,0.5,10.3c0.3,0.6,1.4,1,3.3,1h2.2v1.8
			c-3.5-0.1-6.4-0.2-8.8-0.2c-2.4,0-5.3,0.1-8.7,0.2v-1.8h2.5c1.3,0,2.1-0.2,2.5-0.5c0.4-0.3,0.6-1,0.7-2c0.2-2.3,0.3-5.2,0.3-8.8
			v-16.7c0-3.3-0.1-6.3-0.2-9.1h-3c-4.8,0-7.5,0.1-8,0.3c-0.5,0.2-0.8,1.1-1,2.6l-0.4,3.9h-1.8l0.1-3.5c0-1.4-0.1-3.4-0.4-6.1
			c10.5,0.1,16.7,0.2,18.6,0.2l16.2-0.2c-0.4,3.3-0.6,6.5-0.6,9.6h-1.8l-0.3-3.8c-0.1-1.3-0.3-2.1-0.5-2.4c-0.2-0.2-0.7-0.4-1.4-0.5
			c-2.1-0.2-4.6-0.2-7.3-0.2H512.1z"/>
	</g>
</g>
<g>
	<g>
		<g>
			<path class="st1" d="M309.3,163.5v26.8c-9.8,0.6-18.9,0.4-24.2,0.1c-3.3-0.2-6.2,2.2-6.4,5.3c-0.2,3.1,2.3,5.7,5.6,5.9
				c1.4,0.1,5.8,0.3,11.8,0.3c3.8,0,8.3-0.1,13.1-0.4v7.8h-24.6c-3.3,0-6,2.5-6,5.6c0,3.1,2.7,5.6,6,5.6h61.2c3.3,0,6-2.5,6-5.6
				c0-3.1-2.7-5.6-6-5.6h-24.6v-8.9c13.2-1.6,26.6-4.9,34.2-11.5c4.3-3.8,6.6-8.5,6.6-13.7c0-8.8-6.2-14.9-18.5-18.3
				c-6.3-1.7-13.9-2.8-22.2-3.6v-10.6c15.3-0.9,29.5-5,40.6-11.9c13.3-8.2,20.6-19.4,20.6-31.5c0-3.1-2.7-5.6-6-5.6H254.1
				c-3.3,0-6,2.5-6,5.6c0,12.1,7.3,23.2,20.6,31.5c11.1,6.9,25.3,11,40.6,11.9v9.5c-0.1,0-0.1,0-0.2,0c-40.6-3.4-69.3-7.8-69.3-33.9
				c0-31.3,29.1-39.3,40.7-41.2c3.3,5.3,10.7,8.9,19.5,8.9c12,0,21.3-6.6,21.3-15.1c0-8.5-9.4-15.1-21.3-15.1
				c-9.4,0-17.2,4.1-20.1,10c-5.2,0.8-14.3,2.7-23.5,7.3c-13.1,6.5-28.7,19.6-28.7,45.2c0,17.1,9.5,29.3,28.3,36.3
				C271.2,160.4,292,162,309.3,163.5L309.3,163.5z M300,67.2c5.7,0,9.3,2.5,9.3,3.9c0,1.3-3.6,3.9-9.3,3.9c-5.7,0-9.3-2.5-9.3-3.9
				C290.7,69.7,294.3,67.2,300,67.2L300,67.2z M340.1,167.7c9.9,2.7,9.9,6,9.9,7.6c0,2.1-0.9,3.9-2.8,5.5c-5,4.4-15.1,6.9-25.9,8.3
				v-24.5C328.5,165.4,335,166.3,340.1,167.7L340.1,167.7z M261,105.1h108.6c-1.9,6.1-6.8,11.9-14.4,16.6
				c-10.6,6.6-24.7,10.2-39.9,10.2c-15.2,0-29.3-3.6-39.9-10.2C267.8,116.9,262.9,111.2,261,105.1L261,105.1z M261,105.1"/>
			<path class="st3" d="M309.3,163.5v26.8c-9.8,0.6-18.9,0.4-24.2,0.1c-3.3-0.2-6.2,2.2-6.4,5.3c-0.2,3.1,2.3,5.7,5.6,5.9
				c1.4,0.1,5.8,0.3,11.8,0.3c3.8,0,8.3-0.1,13.1-0.4v7.8h-24.6c-3.3,0-6,2.5-6,5.6c0,3.1,2.7,5.6,6,5.6h61.2c3.3,0,6-2.5,6-5.6
				c0-3.1-2.7-5.6-6-5.6h-24.6v-8.9c13.2-1.6,26.6-4.9,34.2-11.5c4.3-3.8,6.6-8.5,6.6-13.7c0-8.8-6.2-14.9-18.5-18.3
				c-6.3-1.7-13.9-2.8-22.2-3.6v-10.6c15.3-0.9,29.5-5,40.6-11.9c13.3-8.2,20.6-19.4,20.6-31.5c0-3.1-2.7-5.6-6-5.6H254.1
				c-3.3,0-6,2.5-6,5.6c0,12.1,7.3,23.2,20.6,31.5c11.1,6.9,25.3,11,40.6,11.9v9.5c-0.1,0-0.1,0-0.2,0c-40.6-3.4-69.3-7.8-69.3-33.9
				c0-31.3,29.1-39.3,40.7-41.2c3.3,5.3,10.7,8.9,19.5,8.9c12,0,21.3-6.6,21.3-15.1c0-8.5-9.4-15.1-21.3-15.1
				c-9.4,0-17.2,4.1-20.1,10c-5.2,0.8-14.3,2.7-23.5,7.3c-13.1,6.5-28.7,19.6-28.7,45.2c0,17.1,9.5,29.3,28.3,36.3
				C271.2,160.4,292,162,309.3,163.5L309.3,163.5z M300,67.2c5.7,0,9.3,2.5,9.3,3.9c0,1.3-3.6,3.9-9.3,3.9c-5.7,0-9.3-2.5-9.3-3.9
				C290.7,69.7,294.3,67.2,300,67.2L300,67.2z M340.1,167.7c9.9,2.7,9.9,6,9.9,7.6c0,2.1-0.9,3.9-2.8,5.5c-5,4.4-15.1,6.9-25.9,8.3
				v-24.5C328.5,165.4,335,166.3,340.1,167.7L340.1,167.7z M261,105.1h108.6c-1.9,6.1-6.8,11.9-14.4,16.6
				c-10.6,6.6-24.7,10.2-39.9,10.2c-15.2,0-29.3-3.6-39.9-10.2C267.8,116.9,262.9,111.2,261,105.1L261,105.1z M261,105.1"/>
		</g>
	</g>
</g>
</svg>
